<svg width="126" height="123" viewBox="0 0 126 123" fill="none" xmlns="http://www.w3.org/2000/svg">
<path d="M44.3268 76.4659C46.4421 77.8173 48.7977 78.7623 51.328 79.2748C53.1887 79.6516 54.9402 80.4459 56.4151 81.58C56.1492 85.5874 56.096 89.6091 56.2588 93.6225L56.6438 103.114C56.6532 103.346 56.842 103.529 57.0731 103.531L60.1924 103.558C60.4277 103.56 60.6216 103.373 60.6292 103.136L60.7297 100.017C60.799 97.8707 61.9129 95.918 63.7148 94.7755C66.8465 94.8242 74.5184 94.2467 81.073 88.1229C87.2715 82.3319 88.5891 75.098 88.8679 72.2568C88.8877 72.0552 88.7664 71.8666 88.5753 71.8018C81.2393 69.3132 73.2443 70.9216 67.7108 75.9991C61.0032 82.1538 60.9743 90.6021 61.0878 92.7559L60.5512 93.2067C60.383 93.348 60.1631 93.3782 59.963 93.2876C59.7615 93.1963 59.6378 93.0089 59.6321 92.7863C59.5167 88.2483 59.561 83.8856 59.7641 79.8191C59.8573 77.9504 59.9877 75.9094 60.4572 73.3211C60.8855 70.9598 61.5108 68.6187 62.3135 66.3584C64.3084 65.4802 66.5287 64.1439 68.6211 62.1091C71.9041 58.9166 73.4778 55.3507 74.2198 52.9216C74.2586 52.7945 74.2376 52.6566 74.1624 52.5472C74.0874 52.4378 73.9666 52.3687 73.8345 52.3598C71.8648 52.2266 67.9806 52.373 64.1012 54.8485C60.7401 56.9933 58.9473 59.882 58.0492 61.8567C57.8653 61.4958 57.6542 61.1321 57.41 60.7694C55.7626 58.3219 53.5247 57.2268 52.3373 56.7918C52.2014 56.742 52.0495 56.7636 51.9328 56.8495C51.8161 56.9354 51.7497 57.0742 51.7559 57.2194C51.8154 58.6042 52.1977 61.308 54.091 63.8574C55.4386 65.672 57.0554 66.7515 58.2696 67.3643C57.7976 69.775 57.4044 72.2012 57.0909 74.6379C56.2337 71.7622 54.3684 67.5906 50.3565 64.1997C44.2898 59.0718 37.4338 59.0292 34.7677 59.2488C34.6504 59.2584 34.5421 59.3156 34.4677 59.4071C34.3932 59.4985 34.359 59.6165 34.3728 59.7339C34.6839 62.366 36.3213 71.3517 44.3268 76.4659ZM51.4994 78.4216C49.0739 77.9304 46.8172 77.0254 44.792 75.7315C37.7613 71.2399 35.8451 63.611 35.3406 60.4042C40.1728 62.6286 44.592 65.575 48.4841 69.1735C51.585 72.0403 54.3236 75.3022 56.6276 78.8698C56.5768 79.4306 56.5302 79.9919 56.4879 80.5534C55.0127 79.5191 53.3032 78.7869 51.4994 78.4216ZM80.4826 87.4858C74.0688 93.4782 66.545 93.9689 63.6053 93.9029C63.5979 93.9028 63.5908 93.9038 63.5835 93.9039L63.5835 93.903C63.4315 93.9077 63.1189 93.894 62.794 93.7479C65.8685 89.004 69.6343 84.784 73.9964 81.2025C78.2074 77.7451 82.8897 74.9528 87.9217 72.8922C87.5078 76.0006 85.996 82.335 80.4826 87.4858ZM68.2955 76.6416C73.3073 72.043 80.4316 70.4189 87.1415 72.2731C82.2012 74.3473 77.5992 77.1202 73.4477 80.5288C69.0451 84.1435 65.2407 88.3987 62.1284 93.1796C62.0614 93.0777 62.0058 92.9671 61.9617 92.8507C61.847 91.0552 61.7063 82.6878 68.2955 76.6416ZM59.6045 73.1654C59.1257 75.8052 58.9932 77.8785 58.8984 79.7757C58.6944 83.8641 58.6497 88.2489 58.7657 92.8088C58.7799 93.3648 59.102 93.8522 59.6062 94.0809C60.1091 94.3089 60.6842 94.2297 61.1075 93.8743L61.3896 93.6373C61.4956 93.8024 61.6201 93.9539 61.7603 94.0872C62.0023 94.3173 62.2642 94.471 62.5162 94.574C60.9068 95.9003 59.9321 97.8605 59.8633 99.9888L59.7765 102.684L57.4929 102.664L57.1247 93.5869C56.7701 84.8427 57.4458 76.0585 59.1318 67.4729C59.7747 67.3034 60.486 67.0829 61.2435 66.7965C60.5459 68.8734 59.9954 71.0113 59.6045 73.1654ZM73.0774 53.6105C72.2663 55.8666 70.7663 58.8116 68.0183 61.484C65.1333 64.2895 61.9943 65.7129 59.6087 66.434C60.9128 64.0432 62.5219 61.847 64.4011 59.8947C66.9037 57.2948 69.8188 55.1839 73.0774 53.6105ZM64.5663 55.5831C67.2479 53.8718 69.932 53.3369 71.9106 53.2219C68.8774 54.7921 66.1479 56.8278 63.778 59.2899C61.9802 61.1576 60.4238 63.2426 59.1357 65.5032C59.0515 64.7474 58.8736 63.8716 58.5291 62.9473C59.2412 61.1286 60.9391 57.8977 64.5663 55.5831ZM54.786 63.3371C53.3061 61.3442 52.8224 59.2478 52.6742 57.8695C53.8136 58.3869 55.4393 59.3954 56.6923 61.2568C57.9842 63.1763 58.2959 65.1275 58.332 66.4152C57.2534 65.8247 55.9166 64.8596 54.786 63.3371ZM49.7987 64.8656C54.9194 69.1938 56.396 74.8501 56.7977 77.1383C56.785 77.258 56.7726 77.3778 56.7604 77.4975C54.5447 74.2187 51.9631 71.2067 49.0712 68.5332C45.3641 65.1058 41.1869 62.2603 36.6355 60.0543C39.7997 60.0862 45.0518 60.8535 49.7987 64.8656Z" fill="black"/>
<circle cx="61.2183" cy="61.2183" r="60.0354" transform="rotate(0.650005 61.2183 61.2183)" stroke="black"/>
<path d="M30.8753 45.7941L29.2601 47.6892L13.5062 34.2614L10.1395 38.2112L9.91121 38.0166L18.2793 28.199L18.5076 28.3936L15.1214 32.3663L30.8753 45.7941Z" fill="black"/>
<path d="M30.3547 35.8573C31.7908 37.8792 33.1952 39.1141 34.568 39.5619C35.9572 39.998 37.2306 39.805 38.3883 38.9828C40.0189 37.8247 41.2965 36.5494 42.2209 35.157L42.4159 35.2761C41.4704 36.708 40.1742 38.0088 38.5273 39.1785C36.8967 40.3365 35.2203 40.7912 33.4982 40.5424C31.7761 40.2936 30.1912 39.1501 28.7436 37.1119C27.2961 35.0736 26.7108 33.1098 26.9879 31.2203C27.2651 29.3309 28.2352 27.7955 29.8985 26.6143C31.2355 25.6647 32.6444 25.2651 34.125 25.4156C35.6056 25.5661 36.9018 26.424 38.0135 27.9894C38.0714 28.0709 38.1293 28.1524 38.1872 28.234L29.4553 34.4354C29.7191 34.9105 30.0189 35.3844 30.3547 35.8573ZM36.385 29.2195C35.257 27.6657 34.1331 26.7222 33.0133 26.3891C31.8936 26.0559 30.869 26.2194 29.9396 26.8795C29.0101 27.5396 28.4681 28.5378 28.3133 29.8743C28.1749 31.1991 28.5174 32.6485 29.3408 34.2224L36.385 29.2195Z" fill="black"/>
<path d="M52.8086 32.2542C51.537 32.7367 50.5753 32.8235 49.9233 32.5146C49.3372 32.2664 48.9873 31.9927 48.8738 31.6935L48.6504 31.1045C48.3655 33.1164 47.2133 34.5054 45.1938 35.2716C42.8376 36.1655 41.0962 35.6069 39.9696 33.5958C39.847 33.3856 39.7432 33.1683 39.6581 32.9439C39.5658 32.7008 39.5039 32.4248 39.4723 32.116C39.4407 31.8071 39.5387 31.417 39.7663 30.9456C40.2214 30.0028 41.6268 28.999 43.9822 27.9342C44.5593 27.6511 45.1003 27.4138 45.6052 27.2222C46.1101 27.0307 46.5753 26.8756 47.0009 26.7569L45.2344 22.1007C45.1899 22.0962 45.1579 22.0121 45.1386 21.8483C45.1121 21.6658 44.9967 21.4743 44.7923 21.2738C44.5995 21.0475 44.3728 20.8447 44.1123 20.6654C43.8517 20.4862 43.4745 20.394 42.9806 20.3889C42.4795 20.3651 41.8831 20.4844 41.1912 20.7469C40.4993 21.0094 39.7356 21.4489 38.8999 22.0654C38.0759 22.6561 37.4949 23.1546 37.1571 23.5609L36.9704 23.4071C38.3437 22.009 39.8906 20.9836 41.611 20.331C43.537 19.6002 44.9398 19.4637 45.8194 19.9215C46.5113 20.2793 46.9708 20.7574 47.1978 21.3558L50.7628 30.7523C50.9685 31.2946 51.231 31.6763 51.5502 31.8974C51.881 32.0928 52.1622 32.1572 52.3936 32.0908L52.7235 32.0298L53.593 31.7L53.6781 31.9243L52.8086 32.2542ZM45.5574 34.877C46.5485 34.501 47.309 33.8274 47.839 32.8562C48.3806 31.8593 48.5588 31.0323 48.3737 30.3752L47.086 26.9813C46.567 27.1354 46.0456 27.3118 45.522 27.5105C45.0172 27.702 44.5229 27.9216 44.0393 28.1693C42.682 28.8768 41.877 29.5458 41.6243 30.1765C41.3715 30.8071 41.4013 31.5339 41.7134 32.3566C41.7702 32.5062 41.8434 32.671 41.933 32.8509C42.8533 34.7692 44.0615 35.4445 45.5574 34.877Z" fill="black"/>
<path d="M59.3993 10.3424C61.7246 10.3074 63.7659 10.3372 65.5234 10.4319C70.4762 10.6986 72.8585 12.5794 72.6703 16.0743C72.5832 17.692 72.0875 19.0873 71.1831 20.2604C70.7082 20.8958 70.0007 21.3885 69.0606 21.7384C68.1215 22.0684 67.0028 22.1984 65.7047 22.1285L61.2711 21.8898L60.7695 31.2063L58.2831 31.0724L59.3993 10.3424ZM65.5372 10.733C64.3789 10.6707 63.1569 10.675 61.8712 10.7459L61.2873 21.5902L65.7209 21.829C68.5432 21.8608 70.0598 19.9195 70.2706 16.0052C70.3566 14.4075 70.0034 13.1567 69.2108 12.2528C68.4193 11.3289 67.1948 10.8223 65.5372 10.733Z" fill="black"/>
<path d="M75.2464 33.1403C73.5494 32.6735 72.6012 31.9357 72.4016 30.9266C72.3582 30.7073 72.3577 30.5204 72.4002 30.3662L77.8497 10.5519L79.8745 11.1088L74.4807 30.7206C74.3269 31.2798 74.3136 31.7429 74.4409 32.1097C74.5927 32.4627 74.7817 32.6806 75.0078 32.7635L75.3101 32.9089L76.2068 33.1555L76.1431 33.3869L75.2464 33.1403Z" fill="black"/>
<path d="M87.4695 38.5683C86.2576 37.9511 85.5468 37.2974 85.3373 36.6071C85.127 36.0063 85.0945 35.5633 85.2397 35.2781L85.5256 34.7167C83.8446 35.8582 82.0417 35.9387 80.1169 34.9585C77.8713 33.8149 77.1144 32.1501 77.8461 29.9641C77.9194 29.7321 78.0105 29.5092 78.1194 29.2953C78.2374 29.0636 78.4001 28.8323 78.6075 28.6012C78.815 28.3702 79.1697 28.1805 79.6717 28.0322C80.6756 27.7355 82.3634 28.1013 84.7351 29.1295C85.3326 29.3665 85.872 29.6075 86.3532 29.8526C86.8344 30.0976 87.2619 30.3378 87.6359 30.5731L89.8958 26.1355C89.8693 26.0995 89.9101 26.0193 90.0184 25.8949C90.1357 25.7526 90.1999 25.5384 90.211 25.2523C90.2489 24.9574 90.2467 24.6533 90.2043 24.3399C90.1619 24.0265 89.9766 23.6853 89.6483 23.3161C89.3292 22.9291 88.8399 22.5677 88.1805 22.2319C87.5211 21.8961 86.6823 21.626 85.6641 21.4217C84.6729 21.2087 83.9133 21.1136 83.3854 21.1366L83.3738 20.895C85.332 20.9721 87.131 21.4281 88.7706 22.2631C90.6063 23.198 91.6503 24.1448 91.9026 25.1038C92.1027 25.8566 92.0576 26.5182 91.7671 27.0885L87.2064 36.044C86.9431 36.5608 86.8369 37.0117 86.8878 37.3967C86.9655 37.773 87.1067 38.0245 87.3115 38.1512L87.5784 38.3544L88.4071 38.7765L88.2982 38.9903L87.4695 38.5683ZM80.6535 34.9625C81.5981 35.4435 82.608 35.5538 83.6833 35.2935C84.7854 35.0243 85.5176 34.6004 85.8796 34.0217L87.5269 30.787C87.0639 30.5063 86.5829 30.2389 86.0839 29.9847C85.6027 29.7397 85.1079 29.5214 84.5994 29.3298C83.1633 28.8004 82.1268 28.6541 81.49 28.8909C80.8532 29.1277 80.3351 29.6381 79.9357 30.4223C79.8631 30.5649 79.7904 30.7298 79.7174 30.9171C78.9157 32.8879 79.2278 34.2364 80.6535 34.9625Z" fill="black"/>
<path d="M101.795 31.4018C100.731 30.4611 99.3888 30.1822 97.7688 30.5651C96.1637 30.9613 94.5663 32.0583 92.9764 33.8562C91.3866 35.6541 90.5296 37.2724 90.4055 38.7111C90.2963 40.163 90.7736 41.3593 91.8373 42.2999C93.1708 43.479 94.5531 44.3009 95.9844 44.7656L95.9127 44.9825C94.4382 44.5063 92.9893 43.6389 91.566 42.3803C90.1426 41.1217 89.3565 39.6256 89.2075 37.892C89.0585 36.1584 89.812 34.3552 91.4681 32.4824C93.1241 30.6095 94.9037 29.5934 96.8067 29.434C98.7097 29.2746 100.425 29.8706 101.953 31.222C102.808 31.9771 103.422 32.8674 103.797 33.8929C104.186 34.9316 104.202 36.0004 103.845 37.0992L102.406 35.8273C102.831 34.8945 102.97 34.0429 102.823 33.2726C102.692 32.5156 102.349 31.8919 101.795 31.4018Z" fill="black"/>
<path d="M102.189 42.484C100.141 43.8828 98.8805 45.2645 98.4077 46.6289C97.9462 48.0098 98.116 49.2866 98.9169 50.4591C100.045 52.1106 101.297 53.4112 102.672 54.361L102.549 54.5538C101.135 53.5823 99.8581 52.2625 98.7187 50.5945C97.5906 48.943 97.1667 47.2586 97.4469 45.5413C97.7271 43.8241 98.8994 42.2604 100.964 40.8502C103.028 39.4401 105.002 38.8909 106.886 39.2025C108.77 39.5141 110.288 40.5122 111.438 42.1967C112.363 43.5509 112.737 44.9668 112.56 46.4444C112.382 47.922 111.501 49.2023 109.915 50.2852C109.833 50.3416 109.75 50.398 109.668 50.4545L103.627 41.6107C103.147 41.8658 102.668 42.1569 102.189 42.484ZM108.715 48.6346C110.289 47.5351 111.253 46.4286 111.607 45.3152C111.96 44.2017 111.816 43.1743 111.173 42.233C110.53 41.2916 109.541 40.7314 108.208 40.5522C106.886 40.3896 105.43 40.7056 103.842 41.5001L108.715 48.6346Z" fill="black"/>
</svg>
